<?xml version="1.0" encoding="UTF-8"?>
<!DOCTYPE svg PUBLIC "-//W3C//DTD SVG 1.0//EN" "http://www.w3.org/TR/2001/REC-SVG-20010904/DTD/svg10.dtd">
<!-- Creator: CorelDRAW 2020 (64-Bit) -->
<svg xmlns="http://www.w3.org/2000/svg" xml:space="preserve" width="595.244mm" height="610.986mm" version="1.0" style="shape-rendering:geometricPrecision; text-rendering:geometricPrecision; image-rendering:optimizeQuality; fill-rule:evenodd; clip-rule:evenodd"
viewBox="0 0 12180122 12502235"
 xmlns:xlink="http://www.w3.org/1999/xlink"
 xmlns:xodm="http://www.corel.com/coreldraw/odm/2003">
 <defs>
  <style type="text/css">
   <![CDATA[
    .fil5 {fill:#111C3A}
    .fil14 {fill:#131313}
    .fil7 {fill:#380C9F}
    .fil15 {fill:#390DA0}
    .fil16 {fill:#3F3F59}
    .fil9 {fill:#415EE9}
    .fil2 {fill:#425FEB}
    .fil6 {fill:#7109B6}
    .fil10 {fill:#CFDFF9}
    .fil8 {fill:#E9F2FE}
    .fil11 {fill:#EAF0FE}
    .fil3 {fill:#EAF1F9}
    .fil4 {fill:#F6A2A0}
    .fil0 {fill:#FC721A}
    .fil12 {fill:#FD711A}
    .fil1 {fill:#FEFEFE}
    .fil13 {fill:white}
   ]]>
  </style>
 </defs>
 <g id="Capa_x0020_1">
  <metadata id="CorelCorpID_0Corel-Layer"/>
  <g id="_2017958469616">
   <g>
    <path class="fil0" d="M792688 7422789c25918,75944 180247,193580 274431,208309l140057 -499182c-18881,9419 -36671,23657 -53041,35459 -16775,12093 -32771,23337 -50673,35991 -33794,23884 -68402,48850 -103525,73237 -21062,14622 -190188,138596 -207249,146185z"/>
    <path class="fil0" d="M6994807 2615787c-68807,11441 -126613,74141 -113327,157466 27450,172146 296840,137256 269367,-44313 -10178,-67266 -75570,-126535 -156040,-113153z"/>
    <path class="fil0" d="M12000689 4027782c14381,115156 193308,97190 178569,-24064 -13878,-114168 -193689,-97000 -178569,24064z"/>
   </g>
   <g>
    <path class="fil1" d="M10239702 1944459c-94796,13376 -184921,63965 -237568,134866 -54602,73532 -97309,165418 -85911,288878 18003,194970 183789,363369 401605,335258 186953,-24129 340275,-203531 322117,-421341 -16161,-193887 -182964,-368315 -400242,-337660z"/>
    <path class="fil1" d="M9624677 3072123l951114 204863c14641,-118211 19697,-212494 -98430,-291581 -120787,-80867 -514377,-169797 -661747,-136331 -111755,25379 -174485,114714 -190937,223048z"/>
    <path class="fil1" d="M1148466 4350023c18146,-131581 -81745,-236422 -194378,-250582 -133726,-16812 -237474,79883 -252266,193906 -17209,132662 79003,237315 193760,252539 135023,17911 236907,-79992 252884,-195862z"/>
    <path class="fil1" d="M1556279 4173310c16851,111268 123830,207243 255991,187399 112578,-16904 208600,-122070 188974,-255921 -16454,-112234 -121463,-209588 -256197,-189269 -112801,17010 -209189,122932 -188768,257791z"/>
    <path class="fil1" d="M2636749 4178516c121035,-14 220290,-103867 220746,-223500 458,-120595 -97599,-226116 -217282,-226116 -135717,0 -233130,99181 -233046,222651 88,127290 98039,226983 229582,226965z"/>
    <path class="fil1" d="M3727713 4639495c10788,64373 19183,103130 7483,171166 -24770,144037 -130630,267609 -274769,297380l12402 28547c13826,4805 19877,-4039 48205,-19947 16077,-9030 29327,-16718 46517,-26261 93722,-52030 181395,-108778 272682,-164002 82856,-50125 179877,-119840 260807,-175741 27737,-19159 57849,-45547 85952,-61819 -28877,-40966 -127872,-159345 -165598,-205790l-41618 -52112c-5752,-6945 -5269,-9777 -12449,-11610 -14178,-1457 -11379,3751 -31389,24119 -10718,10908 -17727,19507 -28664,30233 -19531,19155 -37919,37853 -58324,56155 -35208,31576 -84377,86366 -121238,109682z"/>
    <path class="fil1" d="M6802803 11290344c9576,9061 22061,16102 33481,21348 14794,-16454 32427,-47761 45934,-68901l366154 -573018c15148,-24199 30892,-46695 46163,-71506 87951,-142885 188252,-288874 275722,-431138l182557 -285168c62230,-94057 121575,-193384 183650,-287724l366072 -573444 -34033 -23669c-61751,94465 -120284,190425 -183071,285242 -61852,93403 -121319,193779 -183654,287718 -91311,137612 -185348,296971 -274570,428695 -88310,130374 -185078,291612 -274575,428779 -31303,47974 -59789,95754 -91725,143941 -30597,46171 -62017,96198 -91817,143912 -89290,142960 -186017,287194 -275708,431126 -13299,21340 -86853,131225 -90581,143808z"/>
   </g>
   <g>
    <path class="fil2" d="M1083985 9610136c-29902,7203 -91657,18150 -105357,35924 -18222,23642 -19542,66992 28868,89367l189283 92113c22065,7135 60417,27602 82369,38175l1046391 502458c113036,54055 218831,134540 330197,2071l101344 -137648c127646,-181579 273021,-371192 400298,-552591l200867 -277282c24170,-34234 240810,-324501 246977,-345550 10460,-35684 -15701,-69455 -46910,-70822 -25776,-1127 -157483,37366 -192684,46218l-2281644 577567z"/>
    <path class="fil2" d="M1844140 10748037l-366436 523191c-20739,30571 -45660,55435 -37432,82564 31604,9454 74420,-8596 106738,-16634l505914 -128258c35013,-9329 179729,-50327 203752,-48813 12142,-10542 1184306,-302219 1308654,-333895l381529 -96836c27059,-6851 26472,-5693 48344,-19439 614,-31778 -25887,-35005 -60055,-52820 -163515,-85250 -353326,-177053 -519374,-259977 -99347,-49613 -196513,-98250 -295686,-147831 -49863,-24929 -97440,-49617 -147783,-73961 -73280,-35435 -102199,20254 -135786,67383 -24850,34868 -119801,167738 -141532,191102 -13884,14925 -40567,35203 -63407,47385 -131673,70225 -233306,-935 -338325,-49795 -34545,-16073 -117632,-66437 -156832,-60278 -34123,5361 -45517,26701 -61547,48981 -16495,22924 -29206,42728 -45670,65207 -36677,50078 -155882,227763 -185066,262725z"/>
    <path class="fil2" d="M1794918 10694354c8119,-18140 167485,-243120 181299,-262062 31258,-42863 87620,-103617 19550,-139879 -47792,-25459 -101162,-48095 -149682,-71997 -148019,-72914 -303130,-143186 -449256,-215962 -23024,-11467 -138903,-61582 -148215,-74109 -45017,-2343 -154518,-94403 -202926,-75183 -65652,26069 -16679,124471 4958,211364l266776 1053373c12687,49005 14770,118172 78438,111223 26188,-2859 38529,-24964 50698,-42942 15689,-23182 338790,-489166 348360,-493827z"/>
    <path class="fil2" d="M3605029 9207524c-20923,7898 -27092,17385 -39599,35036l-218033 301792c-82287,109580 -169989,240185 -250554,345387l-91577 126734c-10923,15322 -24365,27964 -22331,54080 3243,41604 48572,52695 80595,68688 33802,16879 66112,33028 99326,49660l693564 346056c28883,14406 73894,47151 108956,29212 40305,-20620 26308,-61862 15717,-105203 -66896,-273732 -141759,-555314 -209989,-829562l-90391 -356674c-10278,-38402 -25148,-84276 -75686,-65205z"/>
    <path class="fil2" d="M5568082 6911483c251182,75613 510340,-427703 372524,-615822 -17283,-23591 -17315,-17516 -26437,-26431 -9351,-9136 -8246,-4013 -448,-6884 -7395,-4025 -47771,-15523 -58287,-16501 -176439,-16394 -352634,252565 -370635,449819 -4228,46325 -716,94888 14225,135046 17051,45823 35285,58379 69059,80773z"/>
    <path class="fil2" d="M8199410 773333c10649,-1659 179500,-125621 201968,-142240l151330 -108606c13266,-9871 38477,-29556 51309,-35042 -18674,-56867 -116075,-131835 -173492,-164008 -76939,-43110 -177329,-62226 -280200,-53910l49085 503807z"/>
   </g>
   <g>
    <path class="fil3" d="M3078233 2626419c8449,8408 45703,19820 59656,27025 20417,10538 33984,19550 51215,31878 120818,86433 141182,187047 173116,325743 41786,181493 81234,361360 121993,543606l182608 815013c13436,58565 47792,227104 60892,269811 36861,-23317 86030,-78107 121238,-109682 20405,-18302 38793,-37000 58324,-56155 10937,-10726 17946,-19325 28664,-30233 20010,-20368 17211,-25576 31389,-24119 -6834,-12957 -7027,-12586 -17180,-24397 -11801,-13728 -12705,-13628 -15770,-25365 15656,-6812 45318,-34187 60002,-46793 15846,9879 16728,20172 26783,28105 43114,-30086 228874,-280351 260014,-324452 161053,-228094 299727,-500025 388407,-772314 39437,-121088 97739,-347636 104739,-473717 -271947,21086 -588756,-72887 -776106,-190325 -108778,-68185 -184256,-121872 -272203,-209394 -58242,-57962 -118708,-127497 -165962,-197857 -9292,-13835 -37872,-62396 -48721,-69458l-222203 252174 -210894 260906z"/>
    <path class="fil3" d="M11468988 8065928c475,-868 960,-2032 1222,-2701 260,-663 855,-1885 1156,-2709 7227,-19904 -2535,9885 1891,-5545 22885,-79777 97581,-619658 104665,-678825 72189,-602955 51103,-1259722 -45783,-1858977 -8606,-53227 -48400,-308998 -63167,-336455l16 2885213z"/>
   </g>
   <g>
    <path class="fil4" d="M8211681 9551464c-41700,28396 -58885,29016 -117601,75823 -66468,52987 -133116,139729 -177452,213899 -36791,61551 -98264,181321 -138727,252948 -24340,43086 -48087,83448 -71647,125795 -23163,41639 -45555,81260 -67733,126163 -10571,21402 -20679,44768 -29515,67651 -34974,90587 10350,29034 -60626,136814 -12746,19355 -25756,39273 -38537,58549l-194432 294202c-13597,20458 -26214,41565 -40071,60358 -40164,54475 -113572,172381 -155760,235882 -45873,69048 -116222,170036 -155874,236367 13008,29376 67988,197669 74649,230934 16843,84133 34236,165465 51966,249471 13006,61627 96924,448879 103824,501703l1375482 -223c-7469,-19920 -178800,-307560 -196508,-339289 -63088,-113042 -129210,-224016 -191829,-341703 -61882,-116308 -117874,-237630 -174696,-359090l-169253 -364570c9169,-15107 24068,-25766 35838,-40724 34129,-43376 59953,-68817 102797,-125838 43720,-58185 54864,-79707 90575,-138047 10546,-17231 18799,-27420 29840,-42996 139169,-196328 79429,-577745 307251,-905526 39398,-56683 115430,-136572 46681,-201532 -26149,-24708 -70403,-36763 -117311,-35236 -62642,2040 -89609,22054 -121332,28216z"/>
    <path class="fil4" d="M6465177 10855872c34170,-10921 63028,-1318 125745,-39576 69934,-42664 134769,-113638 126052,-204088 -4927,-51127 -31854,-86130 -53253,-114675 123108,657 229676,-43028 295235,-141330 76619,-114888 -1684,-180308 -103024,-239216l-17663 -12279c128090,-20192 266834,-153949 231147,-287867 -14602,-54794 -40925,-77462 -64248,-113450l9265 -22869c80292,-1400 120957,10471 187012,-31162 48522,-30585 72005,-72052 108535,-120288 61033,-80597 27886,-184405 -38314,-240323 -43014,-36331 -43393,-28273 -60583,-40051l-7993 -7217c-13575,419 -37612,-10082 -54307,-13747 -118563,-26020 -277617,14496 -374175,71027 -122627,71792 -166994,179328 -116762,312774 6575,17467 15326,30164 20471,46697 -101776,12077 -183636,71209 -209899,152124 -23483,72351 -7027,159756 19664,230840 7641,20346 19589,42310 25369,60665 -12687,7446 -46742,16904 -62204,23865 -19613,8830 -37659,18574 -53249,29912 -99206,72136 -119376,192928 -78191,307036 9918,27475 -7057,33939 -20708,54917 -24696,37954 -40986,63577 -61234,108502 -28523,63286 -36159,83444 -2597,121800 100030,114321 208682,99232 229907,107978z"/>
   </g>
   <g>
    <path class="fil5" d="M4801258 4987267l142911 -121301c11895,-9018 40994,-31254 48263,-40667 24622,-128954 50904,-228876 136265,-332561 68351,-83026 143671,-151647 268065,-203228 141438,-58649 258651,-49517 420821,-49517 1567319,0 3134637,0 4701956,0 166124,0 266203,2302 400273,70143 187145,94698 353036,291049 361667,580358 4577,153415 338,313652 338,467834l0 7059403 -2712189 70 -1375482 223 -2204695 -274 653 -3935723c-31117,2306 -60090,6174 -90650,7440 -32562,1346 -66632,-810 -97994,892l-888 3928909c71649,9249 1662309,4103 1713471,4103l4712351 0c70919,10 142840,-2631 214828,-2789l214020 2789c-6769,-7291 976,-2568 -9896,-5046l-176398 -239 41 -4352158 -16 -2885213c350,-311086 24352,-537731 -173314,-795966l-59910 -74139 -63053 -55858c-16337,-15085 -44880,-36746 -66222,-51526 -45656,-31618 -96664,-60178 -154239,-84847 -137166,-58772 -249070,-66351 -411904,-66351 -1588108,0 -3176217,0 -4764325,0 -167094,0 -274057,-1522 -422157,52541 -119155,43499 -223054,113556 -292884,185262 -53988,55441 -58559,54332 -110569,128498 -68318,97423 -117714,218338 -137767,340369 -13080,79597 -9257,147096 -11369,228571z"/>
    <path class="fil5" d="M6802803 11290344c3728,-12582 77282,-122467 90581,-143808 89691,-143932 186418,-288166 275708,-431126 29799,-47714 61219,-97741 91817,-143912 31936,-48187 60421,-95967 91725,-143941 89496,-137168 186265,-298405 274575,-428779 89222,-131725 183259,-291084 274570,-428695 62335,-93939 121802,-194315 183654,-287718 62787,-94817 121319,-190777 183071,-285242l34033 23669 -366072 573444c-62075,94340 -121420,193666 -183650,287724l-182557 285168c-87471,142265 -187771,288254 -275722,431138 -15271,24811 -31015,47307 -46163,71506l-366154 573018c-13507,21140 -31140,52447 -45934,68901 -11420,-5247 -23904,-12288 -33481,-21348zm400289 -2048862l7993 7217c17190,11778 17569,3720 60583,40051 66200,55918 99347,159725 38314,240323 -36529,48236 -60012,89703 -108535,120288 -66055,41633 -106720,29763 -187012,31162l-9265 22869c23323,35987 49646,58655 64248,113450 35686,133918 -103057,267675 -231147,287867l17663 12279c101340,58907 179643,124327 103024,239216 -65559,98301 -172128,141986 -295235,141330 21400,28545 48326,63548 53253,114675 8717,90450 -56118,161424 -126052,204088 -62717,38259 -91575,28656 -125745,39576 -7567,22715 -52247,87070 -65095,98696 -8119,7350 -15030,11412 -22852,18872 -8416,8025 -10780,11596 -19372,18592l-236306 241933c-12032,15128 -23163,29312 -34453,45185 -55289,77749 -164597,271247 -75502,340322 108700,84270 405749,74960 564848,65351 49406,-2985 98856,-6830 146711,-11610 104643,-10450 82656,-299 113409,-46413 42081,-63102 82760,-129304 127141,-190885 39652,-66331 110002,-167319 155874,-236367 42187,-63501 115596,-181407 155760,-235882 13857,-18793 26474,-39900 40071,-60358l194432 -294202c12781,-19276 25791,-39194 38537,-58549 70976,-107779 25652,-46227 60626,-136814 8836,-22883 18944,-46249 29515,-67651 22177,-44903 44569,-84524 67733,-126163 23560,-42347 47307,-82709 71647,-125795 40462,-71627 101935,-191397 138727,-252948 44336,-74170 110984,-160912 177452,-213899 58717,-46808 75901,-47428 117601,-75823 6249,-15893 30951,-50669 41934,-66308 15897,-22638 27692,-41058 41719,-62062l208287 -315014c12388,-19132 32234,-45355 40485,-63067 -19566,-11334 -514889,-96018 -583927,-108475 -98530,-17778 -196353,-35437 -293052,-53458 -49173,-9165 -96920,-17770 -146615,-26800 -44813,-8142 -100636,-21537 -144565,-25617l-172854 410819z"/>
    <path class="fil5" d="M5913720 6262346c-7798,2871 -8903,-2253 448,6884 9122,8915 9155,2840 26437,26431 137816,188119 -121342,691434 -372524,615822l543645 574739c14334,13839 26104,20849 34262,37516l-100720 120431c-24365,31068 -130086,139584 -150098,158277 -37921,35420 -100460,94745 -141033,125850 -56517,43329 -83689,66879 -149750,113513 -287452,202919 -722983,364165 -1072978,200018 -118113,-55394 -214350,-129678 -293938,-232772 -27913,-36155 -46965,-64886 -71442,-105234 -44148,-72781 -78103,-158669 -105848,-247579 -116756,-374161 -64164,-855346 52631,-1223774 111401,-351411 285160,-702773 511676,-988675 42245,-53317 154428,-189905 203386,-236645 30917,-29519 57563,-58811 87837,-85414 31369,-27567 59783,-55844 93448,-83239 237787,-193488 512311,-365471 840253,-392501 223578,-18428 416684,48627 551439,153288 388480,301724 428836,883726 356893,1343466 -7342,46926 -46783,258438 -63712,286322l-780313 -166723zm-32695 -1656807c-323989,20133 -633908,184037 -863280,375706 -91778,76693 -134297,117217 -217615,198156l-191743 220525c-58858,75506 -115365,154902 -170900,241516 -104450,162905 -202033,347384 -280742,547353 -162565,413025 -266768,928759 -153126,1406179 100120,420619 396602,776883 899087,751416 358352,-18164 667248,-211657 918438,-423811 120411,-101700 203067,-193674 306549,-313744 15097,-17516 30213,-36922 46274,-57720 184968,-239488 335583,-491756 451691,-788747 156652,-400699 271980,-943449 153255,-1405430 -28275,-110030 -62965,-209103 -112799,-299631 -73489,-133501 -166202,-246027 -293899,-326481 -145913,-91933 -309375,-136582 -491189,-125285z"/>
    <path class="fil5" d="M8579081 9050097c58011,6532 127962,23073 186506,33552l281272 51238c61923,11477 32695,3520 88371,22834 111180,38572 245465,-24784 328035,-91322 48731,-39267 74831,-64970 113538,-108375 172074,-192958 331920,-561357 239619,-821090 -41095,-115639 -103634,-131141 -125923,-151287 -9245,-8355 -18930,-18418 -27352,-28011 -19953,-22723 -35154,-36665 -54890,-56020 -38136,-37399 -74808,-71326 -112574,-109187 -18449,-18494 -206109,-207824 -224284,-218727 -3886,19036 -135,99758 -1312,128672 -5152,126705 -20655,232213 -49331,355751 -45480,195929 -140554,408832 -250447,567287 -53693,77419 -70427,92310 -116703,153490 -46482,61451 -94119,98314 -132627,141201 -30980,34506 -72750,65521 -107450,96941 -9576,8670 -29799,20573 -34446,33053z"/>
    <path class="fil5" d="M7352957 4352393c-67698,20460 -58784,115424 9947,122811 43049,4627 602673,432 675723,432 49857,0 872923,4784 899062,-2744 64215,-18496 57055,-116126 -12099,-122578 -63372,-5912 -158348,-291 -225156,-291 -87276,0 -1324678,-4522 -1347477,2370z"/>
    <path class="fil5" d="M2164192 7408254l5185 80616 1508815 -133300c3998,-14682 -1441,-60964 -4354,-76990l-1131451 95473c-64841,5836 -339604,26529 -378194,34201z"/>
    <path class="fil5" d="M2370406 5724723c48643,24905 111383,47499 162813,69754l983302 416512c27256,11336 54667,22957 82801,35046 18799,8079 65066,30129 83845,33880l32042 -72271 -1312552 -557559 -32251 74639z"/>
    <path class="fil5" d="M3967328 4419305c7180,1833 6697,4665 12449,11610l41618 52112c37727,46446 136721,164825 165598,205790 10246,8416 20141,24209 29552,35652l184268 228121c10489,13902 21809,25142 30358,38228 19716,-7620 42251,-37109 64111,-46965 -4608,-18140 -162017,-206314 -180049,-228021l-61031 -77053 -233040 -287924c-10055,-7933 -10937,-18226 -26783,-28105 -14684,12607 -44346,39981 -60002,46793 3065,11737 3970,11637 15770,25365 10153,11811 10346,11441 17180,24397z"/>
    <polygon class="fil5" points="3047185,6401351 3609052,6532018 3627664,6453510 3065442,6320744 "/>
   </g>
   <g>
    <path class="fil6" d="M9624677 3072123c16452,-108334 79181,-197669 190937,-223048 147370,-33466 540960,55463 661747,136331 118127,79087 113071,173370 98430,291581l-951114 -204863zm615026 -1127664c217278,-30655 384081,143773 400242,337660 18158,217810 -135164,397212 -322117,421341 -217816,28111 -383602,-140288 -401605,-335258 -11398,-123460 31309,-215346 85911,-288878 52648,-70900 142772,-121489 237568,-134866zm-910548 -130558c-27857,150376 -67600,302743 -99451,452882 -31827,150020 -65500,302002 -99326,451652 -34006,150442 -65658,300091 -99357,451605 -37090,166768 31999,283662 205215,322105 300030,66587 602495,134117 903134,198491 150826,32296 301039,65512 451664,99478 74229,16740 151483,35136 227382,49983 41991,8212 84254,5592 122977,-7188 41397,-13663 61983,-32564 90945,-50935 1263,-10354 10301,-13086 18913,-22846 18285,-20714 36114,-54471 44342,-80460 16218,-51219 75265,-338603 90851,-407973 41054,-182705 81496,-364863 120708,-548226 39048,-182584 80980,-365317 120419,-548194 21690,-100575 54193,-183261 8406,-282539 -39525,-85705 -109339,-117751 -196197,-136634 -456831,-99316 -914652,-203327 -1371798,-301575 -71768,-15425 -213775,-56493 -283725,-48471 -93489,10720 -161718,73722 -191325,141184 -16030,36529 -24837,90440 -34011,132598 -9722,44682 -18621,90792 -29765,135062z"/>
    <path class="fil6" d="M3294424 8301808c-180049,26450 -139783,294178 37219,270050 69552,-9480 127026,-72294 116546,-154024 -8795,-68590 -74929,-127608 -153765,-116026z"/>
   </g>
   <g>
    <path class="fil7" d="M1148466 4350023c-15977,115870 -117861,213773 -252884,195862 -114757,-15224 -210969,-119877 -193760,-252539 14792,-114023 118541,-210718 252266,-193906 112633,14160 212524,119001 194378,250582zm407813 -176713c-20421,-134859 75967,-240781 188768,-257791 134735,-20319 239743,77035 256197,189269 19625,133851 -76396,239017 -188974,255921 -132160,19844 -239140,-76130 -255991,-187399zm1080469 5206c-131542,18 -229494,-99674 -229582,-226965 -84,-123470 97329,-222651 233046,-222651 119682,0 217740,105520 217282,226116 -456,119633 -99711,223486 -220746,223500zm315329 1218146l744825 318863 -224073 -578938 -12402 -28547c144139,-29771 249999,-153343 274769,-297380 11700,-68035 3305,-106793 -7483,-171166 -13100,-42707 -47456,-211246 -60892,-269811l-182608 -815013c-40759,-182246 -80206,-362113 -121993,-543606 -31934,-138696 -52298,-239310 -173116,-325743 -17231,-12329 -30798,-21340 -51215,-31878 -13953,-7205 -51207,-18617 -59656,-27025 -27917,1175 -60565,-18928 -138880,-10563 -46018,4915 -316504,67317 -373465,79955 -164739,36550 -329291,72903 -494169,108643 -330261,71590 -658322,144319 -988528,217261l-744258 163605c-102068,23061 -143808,32828 -210869,90411 -45936,39443 -93532,102621 -115130,186322 -26038,100914 -8164,168008 13294,262076 37538,164546 73626,327820 110454,492483 73843,330146 148056,657894 221542,988022 37325,167679 46752,307009 188929,413756 157004,117882 291346,67061 481543,23747l1605010 -359633c32148,-7207 30610,-11664 60039,1494 45015,20125 247675,102873 258332,112664z"/>
    <path class="fil7" d="M5881025 4605539c181814,-11297 345276,33352 491189,125285 127698,80454 220411,192981 293899,326481 49834,90528 84524,189600 112799,299631 118725,461981 3397,1004732 -153255,1405430 -116108,296991 -266723,549260 -451691,788747 -16061,20798 -31176,40204 -46274,57720 -103482,120069 -186138,212044 -306549,313744 -251190,212154 -560086,405646 -918438,423811 -502485,25467 -798966,-330797 -899087,-751416 -113642,-477420 -9439,-993154 153126,-1406179 78709,-199969 176292,-384447 280742,-547353 55535,-86613 112042,-166009 170900,-241516l191743 -220525c83319,-80939 125838,-121463 217615,-198156 229371,-191669 539290,-355573 863280,-375706zm-888594 219760c-7268,9413 -36368,31649 -48263,40667l-142911 121301c-27025,32097 -56570,55240 -84192,84845l-161104 178502c-25809,32040 -52592,61899 -77350,95782 -99715,136470 -188645,261626 -270306,415851 -172911,326553 -295401,634070 -358910,1009741 -95451,564613 -17207,1200655 442522,1542960 118946,88565 278507,148864 431188,167857 23806,2963 58858,3767 78355,7553 31363,-1702 65433,454 97994,-892 30561,-1267 59533,-5134 90650,-7440 34960,-7853 73996,-11745 109807,-19468 33609,-7250 78211,-22981 108895,-27276 11827,-7972 92695,-32996 113605,-41385 118148,-47403 204028,-93484 310619,-160558 33501,-21080 63174,-40779 93439,-62588 120458,-86799 157035,-123975 260486,-214172 23262,-20280 166298,-166185 192007,-199478l108256 -130802c276220,-348339 505482,-819465 611684,-1276767 64841,-279205 90542,-571750 51414,-859504 -12824,-94297 -33558,-171463 -56206,-259467 -62026,-196592 -142130,-338722 -274900,-483285 -16648,-18128 -32668,-29603 -49840,-47154 -13988,-14293 -33890,-28825 -51170,-42439 -108424,-85422 -248988,-150613 -390158,-177808 -360296,-69404 -736939,69466 -1024558,268235l-111051 77188z"/>
   </g>
   <g>
    <path class="fil8" d="M3605029 9207524c50538,-19071 65408,26804 75686,65205l90391 356674c68230,274247 143093,555830 209989,829562 10591,43341 24588,84583 -15717,105203 -35062,17939 -80073,-14807 -108956,-29212l-693564 -346056c-33215,-16632 -65525,-32781 -99326,-49660 -32024,-15993 -77352,-27084 -80595,-68688 -2034,-26116 11408,-38758 22331,-54080l91577 -126734c80565,-105201 168266,-235807 250554,-345387l218033 -301792c12507,-17651 18676,-27137 39599,-35036zm-310605 -905716c78835,-11582 144970,47436 153765,116026 10481,81731 -46994,144544 -116546,154024 -177002,24127 -217268,-243601 -37219,-270050zm-1130232 -893554c38590,-7671 313353,-28365 378194,-34201l1131451 -95473c2914,16026 8353,62308 4354,76990l-1508815 133300 -5185 -80616zm-1371504 14534c17062,-7589 186187,-131563 207249,-146185 35124,-24387 69732,-49353 103525,-73237 17903,-12654 33898,-23898 50673,-35991 16370,-11803 34160,-26040 53041,-35459l-140057 499182c-94184,-14729 -248514,-132365 -274431,-208309zm2272753 -1102045l562223 132766 -18613 78508 -561866 -130667 18257 -80607zm-662785 -670659l1312552 557559 -32042 72271c-18778,-3751 -65046,-25801 -83845,-33880 -28134,-12089 -55545,-23710 -82801,-35046l-983302 -416512c-51430,-22255 -114170,-44849 -162813,-69754l32251 -74639zm4592151 -3034298c80470,-13382 145862,45887 156040,113153 27473,181569 -241917,216459 -269367,44313 -13286,-83325 44520,-146026 113327,-157466zm-2740605 2022991l61031 77053c18031,21707 175440,209881 180049,228021 -21860,9857 -44395,39345 -64111,46965 -8549,-13086 -19869,-24326 -30358,-38228l-184268 -228121c-9411,-11443 -19306,-27235 -29552,-35652 -28103,16272 -58215,42660 -85952,61819 -80931,55901 -177951,125617 -260807,175741 -91287,55224 -178960,111972 -272682,164002 -17190,9544 -30440,17231 -46517,26261 -28328,15907 -34379,24751 -48205,19947l224073 578938 -744825 -318863c-9572,17763 -530502,219484 -598889,249903 -197069,87663 -388875,192402 -547299,305098 -66167,47070 -183525,134424 -239504,186744l-56116 51113c-52515,45179 -160969,161905 -208782,217294 -16131,18684 -32214,37945 -48688,58903 -94413,120102 -178628,244345 -251475,385896 -397850,773079 -346880,1645023 -42208,2457392l124868 301131 2281644 -577567c35201,-8852 166908,-47346 192684,-46218 31209,1367 57370,35138 46910,70822 -6167,21050 -222807,311317 -246977,345550l-200867 277282c-127276,181399 -272651,371012 -400298,552591l-101344 137648c-111367,132469 -217161,51985 -330197,-2071l-1046391 -502458c-21952,-10573 -60305,-31039 -82369,-38175 11467,17395 19941,35203 29603,52809 6347,11563 20851,39073 28488,46714 -4829,4289 6079,4645 -6257,3282 9312,12527 125191,62642 148215,74109 146126,72777 301237,143048 449256,215962 48520,23902 101890,46538 149682,71997 68070,36261 11709,97016 -19550,139879 -13814,18942 -173179,243922 -181299,262062 10841,-661 7905,61 15066,8879 4968,6116 6059,8160 11089,13429 10933,11453 17694,15895 23067,31375 29183,-34962 148389,-212647 185066,-262725 16464,-22480 29175,-42283 45670,-65207 16030,-22279 27424,-43620 61547,-48981 39200,-6159 122287,44205 156832,60278 105019,48860 206652,120020 338325,49795 22840,-12181 49523,-32459 63407,-47385 21731,-23364 116683,-156234 141532,-191102 33587,-47129 62506,-102817 135786,-67383 50344,24344 97921,49032 147783,73961 99173,49580 196339,98217 295686,147831 166048,82924 355859,174726 519374,259977 34168,17815 60669,21041 60055,52820 -21872,13747 -21285,12588 -48344,19439l-381529 96836c-124348,31676 -1296511,323353 -1308654,333895 21584,5717 104268,83294 129511,103591 42644,34285 84688,67718 129175,102879 132046,104368 271781,198246 414496,289029 494826,314771 1087963,547422 1669451,662433 64164,12691 133566,21310 196126,34841l2 60151 -3988189 0c-17278,0 -112836,-5257 -126887,5277l4120210 980 888 -3928909c-19497,-3786 -54549,-4590 -78355,-7553 -152680,-18993 -312242,-79292 -431188,-167857 -459728,-342305 -537973,-978348 -442522,-1542960 63509,-375671 185999,-683188 358910,-1009741 81661,-154225 170591,-279381 270306,-415851 24757,-33884 51541,-63742 77350,-95782l161104 -178502c27622,-29605 57168,-52748 84192,-84845 2112,-81475 -1711,-148974 11369,-228571 20053,-122032 69449,-242946 137767,-340369 52009,-74166 56581,-73057 110569,-128498 69830,-71706 173730,-141763 292884,-185262 148101,-54064 255064,-52541 422157,-52541 1588108,0 3176217,0 4764325,0 162834,0 274738,7579 411904,66351 57575,24669 108584,53229 154239,84847 21342,14780 49885,36441 66222,51526l63053 55858c-17872,-34856 -34937,-95664 -49357,-135459l-103538 -263838c-7076,-16718 -54457,-113227 -50515,-129339 -28962,18371 -49548,37272 -90945,50935 -38723,12781 -80986,15400 -122977,7188 -75899,-14848 -153153,-33243 -227382,-49983 -150626,-33966 -300838,-67182 -451664,-99478 -300640,-64375 -603104,-131905 -903134,-198491 -173216,-38443 -242305,-155336 -205215,-322105 33700,-151514 65351,-301163 99357,-451605 33826,-149650 67499,-301632 99326,-451652 31852,-150139 71594,-302506 99451,-452882 -23493,-6372 -68543,-31977 -93462,-43380 -30022,-13738 -61303,-26789 -92007,-39605 -501539,-209322 -1060690,-240151 -1590975,-125615 -302862,65414 -524770,161792 -751739,304654 -139134,87575 -185371,136114 -298114,228620 -11987,9836 -22106,21303 -33996,31762 -52359,46061 -189332,187399 -227859,233001 -41000,48533 -81569,93139 -122817,144020 -200198,246959 -378689,493442 -570004,746650 -86018,113845 -261634,340418 -352508,440985 -38846,42989 -84014,101768 -122740,140566 -12157,12179 -18766,22721 -31158,34735l-95723 101768c-22153,22971 -40720,45609 -63509,68179 -193726,191857 -271749,265479 -481312,440434l-147028 118103z"/>
    <path class="fil8" d="M10357261 4991626c34735,-3634 309717,-4680 334012,915l61 35582 -12404 1396 -308395 205 -13274 -1146 0 -36951zm-3004304 -639233c22799,-6892 1260201,-2370 1347477,-2370 66808,0 161784,-5621 225156,291 69155,6452 76314,104082 12099,122578 -26139,7528 -849205,2744 -899062,2744 -73051,0 -632675,4195 -675723,-432 -68731,-7387 -77645,-102351 -9947,-122811zm-2360525 472906l111051 -77188c287619,-198770 664262,-337640 1024558,-268235 141170,27195 281734,92386 390158,177808 17280,13614 37182,28146 51170,42439 17172,17551 33192,29026 49840,47154 132770,144563 212874,286692 274900,483285l520330 509409c93693,87937 210699,216689 296658,292444 27334,24092 47334,48119 74088,74839 52781,52717 181929,172238 224282,219254 47401,52623 164910,161117 223574,219922 45916,46024 100120,105156 147655,146867 49503,43440 100630,99715 147773,146754l297140 291902c49736,50055 99138,95606 148954,145567 25770,25846 46184,50090 72056,73411 26362,23763 50704,48103 76108,72955 17563,17180 135770,131923 148669,149817 18175,10902 205835,200233 224284,218727 37765,37862 74438,71788 112574,109187 19736,19355 34937,33296 54890,56020 8422,9593 18107,19656 27352,28011 22290,20145 84829,35648 125923,151287 92302,259733 -67544,628132 -239619,821090 -38707,43405 -64806,69108 -113538,108375 -82570,66538 -216854,129893 -328035,91322 -55676,-19314 -26448,-11357 -88371,-22834l-281272 -51238c-58545,-10479 -128496,-27021 -186506,-33552l-34976 -5085c-8250,17712 -28097,43935 -40485,63067l-208287 315014c-14027,21005 -25821,39425 -41719,62062 -10982,15639 -35684,50415 -41934,66308 31723,-6161 58690,-26175 121332,-28216 46908,-1526 91162,10528 117311,35236 68750,64960 -7283,144849 -46681,201532 -227822,327781 -168082,709198 -307251,905526 -11042,15576 -19294,25764 -29840,42996 -35711,58340 -46855,79863 -90575,138047 -42844,57020 -68668,82461 -102797,125838 -11770,14958 -26669,25617 -35838,40724l169253 364570c56822,121461 112813,242782 174696,359090 62619,117687 128741,228661 191829,341703 17708,31729 189040,319369 196508,339289l2712189 -70 0 -7059403c0,-154182 4240,-314419 -338,-467834 -8631,-289310 -174522,-485660 -361667,-580358 -134070,-67841 -234149,-70143 -400273,-70143 -1567319,0 -3134637,0 -4701956,0 -162171,0 -279383,-9132 -420821,49517 -124395,51582 -199715,120202 -268065,203228 -85361,103685 -111643,203607 -136265,332561z"/>
   </g>
   <path class="fil9" d="M5208805 8435282l2167141 395380c43929,4080 99752,17475 144565,25617 49695,9030 97442,17634 146615,26800 96699,18021 194522,35680 293052,53458 69038,12458 564361,97141 583927,108475l34976 5085c4647,-12480 24870,-24383 34446,-33053 34700,-31420 76470,-62435 107450,-96941 38508,-42887 86145,-79750 132627,-141201 46276,-61180 63010,-76071 116703,-153490 109893,-158455 204968,-371358 250447,-567287 28676,-123538 44178,-229046 49331,-355751 1177,-28913 -2574,-109635 1312,-128672 -12899,-17894 -131107,-132637 -148669,-149817 -25404,-24852 -49746,-49192 -76108,-72955 -25873,-23321 -46286,-47565 -72056,-73411 -49816,-49961 -99218,-95512 -148954,-145567l-297140 -291902c-47143,-47039 -98271,-103315 -147773,-146754 -47534,-41711 -101739,-100843 -147655,-146867 -58664,-58805 -176173,-167298 -223574,-219922 -42353,-47016 -171501,-166537 -224282,-219254 -26755,-26720 -46755,-50747 -74088,-74839 -85958,-75756 -202964,-204507 -296658,-292444l-520330 -509409c22648,88005 43382,165170 56206,259467 39128,287754 13427,580299 -51414,859504 -106202,457302 -335464,928428 -611684,1276767l-108256 130802c-25709,33292 -168745,179197 -192007,199478 -103452,90196 -140028,127372 -260486,214172 -30266,21809 -59938,41508 -93439,62588 -106591,67074 -192471,113155 -310619,160558 -20911,8390 -101778,33413 -113605,41385z"/>
   <path class="fil10" d="M5568082 6911483c-33773,-22394 -52007,-34950 -69059,-80773 -14942,-40157 -18453,-88721 -14225,-135046 18001,-197253 194196,-466213 370635,-449819 10516,978 50892,12476 58287,16501l780313 166723c16929,-27884 56370,-239396 63712,-286322 71944,-459741 31588,-1041742 -356893,-1343466 -134755,-104661 -327861,-171716 -551439,-153288 -327943,27031 -602466,199013 -840253,392501 -33665,27395 -62079,55672 -93448,83239 -30274,26603 -56920,55895 -87837,85414 -48958,46740 -161141,183329 -203386,236645 -226517,285903 -400275,637264 -511676,988675 -116795,368427 -169388,849613 -52631,1223774 27745,88909 61700,174798 105848,247579 24477,40348 43530,69079 71442,105234 79588,103094 175825,177378 293938,232772 349995,164147 785527,2902 1072978,-200018 66061,-46634 93233,-70184 149750,-113513 40573,-31105 103112,-90429 141033,-125850 20012,-18692 125733,-127209 150098,-158277l100720 -120431c-8158,-16667 -19928,-23677 -34262,-37516l-543645 -574739z"/>
   <path class="fil11" d="M4990103 8482026l-653 3935723 2204695 274c-6900,-52824 -90818,-440076 -103824,-501703 -17731,-84006 -35124,-165338 -51966,-249471 -6661,-33266 -61641,-201559 -74649,-230934 -44381,61582 -85060,127784 -127141,190885 -30753,46114 -8766,35963 -113409,46413 -47855,4780 -97305,8625 -146711,11610 -159099,9609 -456148,18920 -564848,-65351 -89095,-69075 20213,-262573 75502,-340322 11289,-15873 22421,-30057 34453,-45185l236306 -241933c8592,-6996 10956,-10567 19372,-18592 7823,-7461 14733,-11522 22852,-18872 12848,-11627 57528,-75981 65095,-98696 -21226,-8746 -129877,6343 -229907,-107978 -33562,-38357 -25926,-58514 2597,-121800 20248,-44925 36538,-70548 61234,-108502 13650,-20978 30626,-27442 20708,-54917 -41185,-114109 -21015,-234900 78191,-307036 15590,-11338 33636,-21082 53249,-29912 15461,-6961 49517,-16419 62204,-23865 -5781,-18355 -17729,-40319 -25369,-60665 -26691,-71084 -43147,-158489 -19664,-230840 26263,-80914 108123,-140047 209899,-152124 -5144,-16534 -13896,-29231 -20471,-46697 -50231,-133445 -5865,-240981 116762,-312774 96558,-56531 255612,-97047 374175,-71027 16695,3665 40732,14166 54307,13747l172854 -410819 -2167141 -395380c-30683,4295 -75285,20027 -108895,27276 -35811,7723 -74847,11614 -109807,19468z"/>
   <path class="fil12" d="M4513409 2002204c-14295,-17878 -28222,-32787 -42787,-50857 -124624,-154610 -258145,-308440 -357198,-484756 -47471,-84499 -87307,-165086 -85977,-283621 2464,-219342 143218,-386631 303699,-443393 140192,-49589 322098,-22807 429802,82981 26319,25848 64856,65017 82343,100346 19155,-7919 38402,-22128 61876,-32069 400437,-169578 738647,268700 563141,628905 -47526,97544 -94086,138643 -168027,195909 -63505,49183 -142469,99200 -218174,142117 -76763,43517 -153859,85320 -236367,127409 -35717,18220 -218315,108483 -244360,115140l-87972 -98111zm-1002080 111135c10849,7062 39429,55623 48721,69458 47254,70360 107720,139895 165962,197857 87947,87522 163425,141209 272203,209394 187350,117438 504158,211411 776106,190325 219719,-5161 480037,-91674 658875,-204188 30489,-19181 59363,-36939 87473,-58121 29098,-21927 52818,-40683 79811,-62232l76368 -69118c12742,-12736 24068,-23116 36018,-36736 38240,-43591 58885,-64158 98592,-116278 390778,-512941 372986,-1217612 -21062,-1712986l-66061 -75926c-83722,-97477 -204417,-186171 -317312,-254581 -248483,-150577 -600720,-230437 -942989,-169830 -265137,46949 -507694,168854 -699773,342966 -348773,316152 -533068,832952 -415577,1341357 33816,146333 59912,193668 114557,314973 11537,25611 46075,78837 48089,93667z"/>
   <path class="fil13" d="M4601381 2100315c26045,-6656 208643,-96920 244360,-115140 82508,-42089 159605,-83892 236367,-127409 75705,-42918 154669,-92934 218174,-142117 73941,-57266 120501,-98365 168027,-195909 175506,-360206 -162705,-798483 -563141,-628905 -23474,9941 -42721,24150 -61876,32069 -17487,-35328 -56024,-74497 -82343,-100346 -107704,-105788 -289610,-132570 -429802,-82981 -160480,56763 -301235,224051 -303699,443393 -1330,118535 38506,199122 85977,283621 99052,176316 232573,330146 357198,484756 14565,18070 28492,32979 42787,50857l87972 98111z"/>
   <path class="fil14" d="M11655241 12423371l-214020 -2789c-71989,158 -143910,2799 -214828,2789l-4712351 0c-51162,0 -1641822,5146 -1713471,-4103l-4120210 -980 2353 83947 10973199 0 -671 -78864z"/>
   <path class="fil15" d="M6771289 194646c-176736,37690 -121037,304114 56951,266381 64729,-13722 122289,-80188 103736,-163873 -14068,-63460 -78430,-120051 -160687,-102508z"/>
   <path class="fil16" d="M10357261 5028577l13274 1146 308395 -205 12404 -1396 -61 -35582c-24295,-5594 -299277,-4549 -334012,-915l0 36951z"/>
  </g>
 </g>
</svg>
